# xmcd
# Copyright (C) 1995-1998 Ti Kan
#
# Track frame offsets:
#       150
#       14946
#       34817
#       48945
#       63098
#       81659
#       103358
#       109439
#       121626
#       131458
#       144665
#       157791
#       173738
#       197866
#       216378
#       231190
#       255745
#       273041
#       282904
#       288087
#       308344
#       328667
#
# Disc length: 4492 seconds
#
# Revision: 0
# Processed by: cddbd v1.5.2PL0 Copyright (c) Steve Scherf et al.
# Submitted via: CD-Import v1.0
#
DISCID=43118a16
DTITLE=Pedro Lenz - Tanze Wi Ne Schmätterling
DYEAR=10
DGENRE=
TTITLE0=01 Summertime
TTITLE1=02 Derali Chunnt
TTITLE2=03 Waudlouf
TTITLE3=04 D Coiffeuse Vom Ali
TTITLE4=05 Ds Velo Vom Cassius
TTITLE5=06 Bim Hoorschnide
TTITLE6=07 Der Blues
TTITLE7=08 Trainings-Funk
TTITLE8=09 Kennet Dir De Boxer Blin
TTITLE9=10 Der Ali Troimt
TTITLE10=11 Schönheit
TTITLE11=12 Ds Sonny-Listen-Gedicht
TTITLE12=13 Sehnsucht
TTITLE13=14 Der Kampf
TTITLE14=15 Blin I Der Garderobe
TTITLE15=16 E Frou Und E Maa
TTITLE16=17 Pole Bim Ufruume
TTITLE17=18 Afrika Rüeft
TTITLE18=19 Trainings-Funk
TTITLE19=20 Pole In Kinshasa
TTITLE20=21 Zouberei
TTITLE21=22 D Regula Verzöut
EXTD=
EXTT0=
EXTT1=
EXTT2=
EXTT3=
EXTT4=
EXTT5=
EXTT6=
EXTT7=
EXTT8=
EXTT9=
EXTT10=
EXTT11=
EXTT12=
EXTT13=
EXTT14=
EXTT15=
EXTT16=
EXTT17=
EXTT18=
EXTT19=
EXTT20=
EXTT21=
PLAYORDER=
